<?xml version="1.0" encoding="UTF-8" standalone="no"?>
<svg
   width="109.76979"
   height="97.006645"
   viewBox="0 0 109.76979 97.006645"
   fill="none"
   version="1.1"
   id="svg13"
   xmlns="http://www.w3.org/2000/svg"
   xmlns:svg="http://www.w3.org/2000/svg">
  <path
     d="m 54.338073,25.197756 v 2.4235 c 0,0.538 0.4696,0.8068 0.9392,0.8068 0.4696,0 0.9392,-0.2688 0.9392,-0.8068 v -2.4235 c 0.0071,-0.4458 -0.4093,-0.8115 -0.9392,-0.8163 -0.5298,0.0049 -0.945,0.3705 -0.9392,0.8163 z m -5.4735,2.0847 1.9902,1.7097 c 0.8878,0.7623 2.2195,-0.3817 1.3317,-1.144 l -1.9976,-1.7097 c -0.1767,-0.1562 -0.4196,-0.2442 -0.6732,-0.2443 -0.8454,10e-5 -1.2603,0.8847 -0.6511,1.3883 z m 11.5011,-1.144 -1.9976,1.7097 c -0.8878,0.7623 0.444,1.9063 1.3317,1.144 l 1.9903,-1.7097 c 0.6092,-0.5036 0.1941,-1.3881 -0.6512,-1.3882 -0.2534,0 -0.4964,0.088 -0.6732,0.2442 z m -19.009,4.6974 c -1.0008,0 -1.9423,0.4308 -2.5093,1.1392 l -9.0762,11.3393 c -0.1963,0.245 -0.3262,0.5278 -0.3797,0.7879 -1.7387,1.0869 -2.2892,2.8584 -2.2892,4.2089 v 6.8672 c 0,1.2748 0.7577,3.1838 1.4601,4.8896 0.351,0.8529 0.7085,1.6796 0.9612,2.37 0.2978,0.8137 0.3943,1.2811 0.3943,1.4843 v 0.799 c -0.5093,0.0118 -0.9366,0.3706 -0.9355,0.8083 v 6.4497 c -0.002,0.4455 0.4169,0.8081 0.9355,0.8099 h 15.0304 c 0.5187,-0.0018 0.9375,-0.3644 0.9355,-0.8099 v -6.4497 c 0.0019,-0.3915 -0.3383,-0.7277 -0.7869,-0.7973 0.1185,-0.1946 0.2655,-0.3926 0.4604,-0.6792 0.3131,-0.4599 0.6719,-1.0489 0.9263,-1.842 l 8.016,7.8174 c 0.2545,0.2831 0.5803,0.3403 0.7777,0.3403 0.1974,0 0.5528,-0.073 0.7778,-0.3403 l 8.0159,-7.8174 c 0.2545,0.7931 0.6135,1.3821 0.9264,1.842 0.1948,0.2866 0.3418,0.4846 0.4604,0.6792 -0.4485,0.0696 -0.7888,0.4058 -0.7869,0.7973 v 6.4497 c -0.002,0.4455 0.4168,0.8081 0.9355,0.8099 h 15.0304 c 0.519,-0.0018 0.937,-0.3644 0.935,-0.8099 v -6.4497 c 0.002,-0.4377 -0.426,-0.7965 -0.935,-0.8083 v -0.799 c 0,-0.2032 0.096,-0.6706 0.394,-1.4843 0.253,-0.6904 0.61,-1.5171 0.961,-2.37 0.703,-1.7058 1.461,-3.6148 1.461,-4.8896 v -6.8672 c 0,-1.3505 -0.551,-3.122 -2.29,-4.2089 -0.053,-0.2601 -0.183,-0.5429 -0.379,-0.7879 l -9.0765,-11.3393 c -0.567,-0.7084 -1.5085,-1.1392 -2.5094,-1.1392 -9.2804,0.0045 -18.5608,0.0021 -27.8412,0 z m 0,1.6136 7.706,0.0016 -6.5724,11.2982 h -10.7876 l 8.6965,-10.8634 c 0.2176,-0.272 0.5732,-0.4364 0.9575,-0.4364 z m 27.8412,0 c 0.3844,0 0.7398,0.1644 0.9576,0.4364 l 8.6964,10.8634 h -10.7876 l -6.5723,-11.2983 z m -18.0313,0.003 c 2.7405,0.0023 5.481,0.0011 8.2214,0 l 6.576,11.2967 h -21.3734 z m -19.2236,12.9119 h 10.5014 l 9.7531,19.9745 -14.8268,-14.4672 c -0.2978,-1.8992 -1.5298,-3.1861 -2.9257,-3.6731 -0.2857,-0.0998 -0.585,-0.1543 -0.8841,-0.1828 z m 12.5375,0 h 21.5936 l -10.7968,22.1112 z m 23.6297,0 h 10.5014 l -1.6178,1.6514 c -0.2992,0.0287 -0.5982,0.083 -0.8841,0.1828 -1.3959,0.487 -2.6279,1.7739 -2.9258,3.6731 l -14.8268,14.4671 z m -36.5047,2.1604 c -0.4691,0.3807 -0.7447,0.9431 -0.7447,1.6325 v 5.8902 c 0,1.076 1.8783,1.076 1.8783,0 v -5.8902 c 0,-0.3027 0.1019,-0.4432 0.2218,-0.4996 0.12,-0.0563 0.3986,-0.097 0.7759,0.0347 0.7549,0.2634 1.7542,1.1539 1.816,2.912 v 3.4368 c 0,0.6716 0.3955,1.2054 0.8053,1.6325 0.4098,0.4271 0.8748,0.8046 1.3097,1.2259 0.8105,0.7854 1.6388,1.7996 1.6435,3.5975 0.0036,1.076 1.8831,1.0697 1.8784,-0.0064 -0.0071,-2.2275 -1.0349,-3.6108 -2.1205,-4.6626 -0.503,-0.4874 -0.9691,-0.8734 -1.262,-1.1787 -0.2928,-0.3054 -0.3742,-0.4731 -0.3742,-0.6083 v -1.6609 l 7.4638,7.2817 c -0.1416,1.2661 -0.5371,1.9579 -0.9612,2.5811 -0.2967,0.4363 -0.6631,0.9022 -0.8547,1.4765 h -11.2829 v -0.7971 c 0,-0.6036 -0.2087,-1.224 -0.4806,-1.9666 -0.2716,-0.7426 -0.6316,-1.5786 -0.9795,-2.4236 -0.6959,-1.6899 -1.3556,-3.3675 -1.3556,-4.3538 v -6.8672 c 0,-0.7843 0.2552,-1.7581 0.9686,-2.4725 z m 48.9983,-1.6861 c 0.713,0.7143 0.968,1.6881 0.968,2.4724 v 6.8672 c 0,0.9863 -0.659,2.6639 -1.355,4.3538 -0.348,0.845 -0.708,1.681 -0.98,2.4236 -0.2712,0.7426 -0.4802,1.363 -0.4802,1.9665 v 0.7974 h -11.2829 c -0.1917,-0.5744 -0.5579,-1.0402 -0.8548,-1.4765 -0.424,-0.6233 -0.8197,-1.315 -0.9612,-2.5811 l 7.4638,-7.2817 v 1.6609 c 0,0.1352 -0.0812,0.3029 -0.3742,0.6082 -0.2928,0.3054 -0.759,0.6914 -1.2619,1.1787 -1.0857,1.0519 -2.1145,2.4352 -2.1205,4.6627 -0.0036,1.0761 1.8737,1.0823 1.8783,0.0064 0.0035,-1.7979 0.833,-2.8121 1.6435,-3.5975 0.4349,-0.4213 0.9,-0.7988 1.3097,-1.2259 0.4098,-0.4271 0.8053,-0.9609 0.8053,-1.6325 v -3.4368 c 0.0618,-1.7582 1.0611,-2.6487 1.816,-2.912 0.3774,-0.1317 0.6559,-0.0911 0.7759,-0.0347 0.12,0.0564 0.2219,0.1969 0.2219,0.4995 v 5.8903 c 0,1.0759 1.8783,1.0759 1.8783,0 v -5.8903 c 0,-0.6893 -0.276,-1.2517 -0.7447,-1.6325 z m -49.743,20.4945 h 13.1447 v 4.8423 h -13.1447 z m 35.6884,0 h 13.1446 v 4.8423 h -13.1446 z"
     fill="#99db21"
     id="path2" />
  <path
     fill-rule="evenodd"
     clip-rule="evenodd"
     d="M 25.641673,6.1833558 C -0.00482705,19.261456 -7.7027271,48.810656 8.4478729,72.183356 c 16.1506001,23.3722 50.0338001,31.718204 75.6799001,18.6402 23.402997,-11.9341 31.859997,-37.5826 20.889997,-59.7383 9.955,20.5619 1.358,44.6404 -21.191997,56.1393 -24.7546,12.623 -56.9488,5.307 -71.9079,-16.3415 -14.9592001,-21.6484 -7.0186001,-49.4311 17.7358,-62.0544002 24.6989,-12.5949 56.8041,-5.3396 71.807097,16.1962002 -0.046,-0.0672 -0.092,-0.1345 -0.139,-0.2016 C 85.171773,1.4505558 51.288073,-6.8948442 25.641673,6.1833558 Z"
     fill="url(#paint0_radial_1139_137)"
     id="path4"
     style="fill:url(#paint0_radial_1139_137)" />
  <defs
     id="defs11">
    <radialGradient
       id="paint0_radial_1139_137"
       cx="0"
       cy="0"
       r="1"
       gradientUnits="userSpaceOnUse"
       gradientTransform="matrix(-74.998976,-132.00062,132.5762,-75.326006,103.20477,114.50256)">
      <stop
         stop-color="#FF7C03"
         id="stop6" />
      <stop
         offset="1"
         stop-color="#99DB21"
         id="stop8" />
    </radialGradient>
  </defs>
</svg>
