<svg width="147" height="122" viewBox="0 0 147 122" fill="none" xmlns="http://www.w3.org/2000/svg">
<g filter="url(#filter0_d_1139_324)">
<path fill-rule="evenodd" clip-rule="evenodd" d="M69.5 99.9224C107.884 99.9224 139 77.554 139 49.9612C139 22.3684 107.884 0 69.5 0C31.1162 0 0 22.3684 0 49.9612C0 61.9541 5.87819 72.96 15.6764 81.5714L10.6481 109.999L36.9415 94.1122C46.6539 97.8211 57.7356 99.9224 69.5 99.9224Z" fill="#2CBA83"/>
</g>
<path d="M100.81 22.8573C100.81 18.6669 97.381 15.2383 93.1906 15.2383H32.2382C28.0477 15.2383 24.6191 18.6669 24.6191 22.8573V68.5716C24.6191 72.7621 28.0477 76.1907 32.2382 76.1907H93.1906C97.381 76.1907 100.81 72.7621 100.81 68.5716V22.8573ZM93.1906 22.8573L62.7144 41.9049L32.2382 22.8573H93.1906ZM93.1906 68.5716H32.2382V30.4764L62.7144 49.524L93.1906 30.4764V68.5716Z" fill="#FF7C03"/>
<g clip-path="url(#clip0_1139_324)">
<path d="M113.191 48.5713H75.0957C73.0004 48.5713 71.2861 50.2856 71.2861 52.3808V79.0475C71.2861 81.1427 73.0004 82.857 75.0957 82.857H113.191C115.286 82.857 116.981 81.1427 116.981 79.0475L117 52.3808C117 50.2856 115.286 48.5713 113.191 48.5713ZM113.191 79.0475H75.0957V52.3808H113.191V79.0475ZM111.286 54.2856H97.9528V63.8094H111.286V54.2856ZM109.381 58.0951L104.619 61.4284L99.8576 58.0951V56.1903L104.619 59.5237L109.381 56.1903V58.0951ZM88.429 65.7141C91.5718 65.7141 94.1433 63.1427 94.1433 59.9999C94.1433 56.857 91.5718 54.2856 88.429 54.2856C85.2861 54.2856 82.7147 56.857 82.7147 59.9999C82.7147 63.1427 85.2861 65.7141 88.429 65.7141ZM88.429 58.0951C89.4766 58.0951 90.3338 58.9522 90.3338 59.9999C90.3338 61.0475 89.4766 61.9046 88.429 61.9046C87.3814 61.9046 86.5242 61.0475 86.5242 59.9999C86.5242 58.9522 87.3814 58.0951 88.429 58.0951ZM99.8576 74.457C99.8576 69.6951 92.2957 67.638 88.429 67.638C84.5623 67.638 77.0004 69.6951 77.0004 74.457V77.1427H99.8576V74.457ZM81.7242 73.3332C83.1338 72.3808 85.9528 71.4284 88.429 71.4284C90.9052 71.4284 93.7052 72.3618 95.1338 73.3332H81.7242Z" fill="#99DB21"/>
</g>
<defs>
<filter id="filter0_d_1139_324" x="0" y="0" width="147" height="121.999" filterUnits="userSpaceOnUse" color-interpolation-filters="sRGB">
<feFlood flood-opacity="0" result="BackgroundImageFix"/>
<feColorMatrix in="SourceAlpha" type="matrix" values="0 0 0 0 0 0 0 0 0 0 0 0 0 0 0 0 0 0 127 0" result="hardAlpha"/>
<feOffset dx="4" dy="8"/>
<feGaussianBlur stdDeviation="2"/>
<feComposite in2="hardAlpha" operator="out"/>
<feColorMatrix type="matrix" values="0 0 0 0 0 0 0 0 0 0 0 0 0 0 0 0 0 0 0.5 0"/>
<feBlend mode="normal" in2="BackgroundImageFix" result="effect1_dropShadow_1139_324"/>
<feBlend mode="normal" in="SourceGraphic" in2="effect1_dropShadow_1139_324" result="shape"/>
</filter>
<clipPath id="clip0_1139_324">
<rect width="45.7143" height="45.7143" fill="white" transform="translate(71.2861 42.8574)"/>
</clipPath>
</defs>
</svg>
