<svg width="109" height="100" viewBox="0 0 109 100" fill="none" xmlns="http://www.w3.org/2000/svg">
<path d="M40.3835 49.3499C40.9022 49.3499 41.3227 48.9887 41.3227 48.5431C41.3227 48.0975 40.9022 47.7363 40.3835 47.7363C39.8648 47.7363 39.4443 48.0975 39.4443 48.5431C39.4443 48.9887 39.8648 49.3499 40.3835 49.3499Z" fill="#99DB21"/>
<path d="M68.5593 49.3499C69.078 49.3499 69.4985 48.9887 69.4985 48.5431C69.4985 48.0975 69.078 47.7363 68.5593 47.7363C68.0406 47.7363 67.6201 48.0975 67.6201 48.5431C67.6201 48.9887 68.0406 49.3499 68.5593 49.3499Z" fill="#99DB21"/>
<path d="M54.4714 37.2484C54.9901 37.2484 55.4106 36.8872 55.4106 36.4416C55.4106 35.996 54.9901 35.6348 54.4714 35.6348C53.9527 35.6348 53.5322 35.996 53.5322 36.4416C53.5322 36.8872 53.9527 37.2484 54.4714 37.2484Z" fill="#99DB21"/>
<path d="M42.7317 55.3212C43.2013 55.0791 43.2952 54.595 43.1074 54.1917C42.8256 53.7883 42.2621 53.7076 41.7925 53.8689C41.323 54.111 41.229 54.595 41.4169 54.9984C41.6986 55.4018 42.2621 55.4825 42.7317 55.3212Z" fill="#99DB21"/>
<path d="M67.1507 43.2196C67.6202 42.9776 67.7142 42.4935 67.5263 42.0901C67.2446 41.6867 66.6811 41.606 66.2115 41.7674C65.7419 42.0094 65.648 42.4935 65.8358 42.8969C66.1176 43.3003 66.6811 43.381 67.1507 43.2196Z" fill="#99DB21"/>
<path d="M48.3251 38.2697C48.4593 37.8393 48.1619 37.3969 47.661 37.2816C47.1599 37.1662 46.645 37.4217 46.5108 37.8521C46.3765 38.2824 46.6738 38.7248 47.1749 38.8402C47.6758 38.9555 48.1908 38.7 48.3251 38.2697Z" fill="#99DB21"/>
<path d="M61.7547 38.8343C62.2557 38.719 62.5531 38.2766 62.4188 37.8462C62.2846 37.4158 61.7696 37.1604 61.2686 37.2758C60.7676 37.391 60.4703 37.8334 60.6045 38.2638C60.7388 38.6942 61.2537 38.9496 61.7547 38.8343Z" fill="#99DB21"/>
<path d="M43.1071 42.8956C43.3888 42.4922 43.201 42.0081 42.7314 41.7661C42.2618 41.524 41.6983 41.6854 41.4166 42.0888C41.1348 42.4922 41.3226 42.9763 41.7922 43.2183C42.2618 43.3797 42.8253 43.299 43.1071 42.8956Z" fill="#99DB21"/>
<path d="M65.8355 54.1917C65.5538 54.595 65.7416 55.0791 66.2112 55.3212C66.6808 55.5632 67.2443 55.4018 67.526 54.9984C67.8078 54.595 67.6199 54.111 67.1503 53.8689C66.6808 53.7076 66.1173 53.7883 65.8355 54.1917Z" fill="#99DB21"/>
<path d="M78.8894 54.1909C80.9556 54.1909 82.6461 52.7387 82.6461 50.9638C82.6461 49.1888 80.9556 47.7366 78.8894 47.7366C77.105 47.7366 75.6962 48.7854 75.2266 50.157H65.5532C65.6471 49.5922 65.741 49.1081 65.741 48.5434C65.741 47.7366 65.6471 46.9298 65.3653 46.123H75.1327C75.6962 46.123 76.0719 45.8003 76.0719 45.3162V40.3948C80.2981 39.9914 83.5852 36.9255 83.5852 33.2143C83.5852 29.1803 79.8286 25.9531 75.1327 25.9531C70.4369 25.9531 66.6802 29.1803 66.6802 33.2143C66.6802 36.9255 69.9673 39.9914 74.1935 40.3948V44.5094H64.7079C62.9235 41.2015 58.979 38.8618 54.471 38.8618C53.5318 38.8618 52.5926 38.9425 51.6535 39.1846V36.4415C51.6535 36.2801 51.5596 36.1187 51.4656 35.9574L47.1455 31.1166C47.615 30.6325 47.8968 29.9064 47.8968 29.1803C47.8968 27.4054 46.2063 25.9531 44.1401 25.9531C42.0739 25.9531 40.3834 27.4054 40.3834 29.1803C40.3834 30.9553 42.0739 32.4075 44.1401 32.4075C44.7036 32.4075 45.1732 32.3268 45.6428 32.1654L49.7751 36.7642V39.83C45.9245 41.3629 43.2009 44.7514 43.2009 48.6241C43.2009 49.4309 43.2949 50.2377 43.5766 51.0444H33.8093V44.5094C37.0024 44.106 39.4443 41.7663 39.4443 38.9425C39.4443 35.796 36.5328 33.295 32.8701 33.295C29.2073 33.295 26.2959 35.796 26.2959 38.9425C26.2959 41.7663 28.7377 44.106 31.9309 44.5094V51.7706C31.9309 52.2546 32.3066 52.5774 32.8701 52.5774H44.234C44.8915 53.7875 45.8306 54.8364 46.9576 55.7239V56.692C45.8306 57.0147 45.0793 57.9022 45.0793 58.951C45.0793 59.5965 45.361 60.1612 45.8306 60.5646C45.361 60.968 45.0793 61.5328 45.0793 62.1782C45.0793 63.2271 45.9245 64.1145 47.0515 64.4372C47.4272 67.261 50.2447 69.4394 53.5318 69.4394V71.053H41.7922C42.7314 69.9235 43.2009 68.4712 43.2009 67.019C43.2009 62.985 39.4443 59.7578 34.7484 59.7578C30.0526 59.7578 26.2959 62.985 26.2959 67.019C26.2959 71.053 30.0526 74.2801 34.7484 74.2801C36.8146 74.2801 38.6929 73.6347 40.1017 72.5859C40.1956 72.5859 40.2895 72.6666 40.3834 72.6666H54.471C55.0345 72.6666 55.4101 72.3438 55.4101 71.8598V69.4394C57.1946 69.4394 58.7912 68.8746 59.9182 67.9065L64.0505 70.0848C63.9566 70.4882 63.8627 70.8109 63.8627 71.1336C63.8627 72.9086 65.5532 74.3608 67.6194 74.3608C69.6855 74.3608 71.376 72.9086 71.376 71.1336C71.376 69.3587 69.6855 67.9065 67.6194 67.9065C66.5863 67.9065 65.741 68.2292 65.0836 68.7939L61.1391 66.6963C61.6087 66.0508 61.8904 65.3247 61.9843 64.5179C62.8296 64.2759 63.487 63.7111 63.7688 63.0657H69.6855C70.1551 65.8088 72.8787 67.9065 76.1658 67.9065C79.8285 67.9065 82.74 65.4054 82.74 62.2589C82.74 59.1124 79.8285 56.6113 76.1658 56.6113C72.8787 56.6113 70.1551 58.709 69.6855 61.4521H63.7688C63.6748 61.1294 63.487 60.8873 63.2053 60.6453C63.6748 60.2419 63.9566 59.6772 63.9566 59.0317C63.9566 57.9829 63.2053 57.0954 62.0783 56.7727V55.8045C63.487 54.675 64.5201 53.3035 65.1775 51.8512H75.3205C75.6962 53.1421 77.105 54.1909 78.8894 54.1909ZM72.6909 34.8279C71.9395 35.3926 71.376 36.2801 71.376 37.2483V37.813C69.6855 36.7642 68.5585 35.0699 68.5585 33.2143C68.5585 30.0678 71.4699 27.5667 75.1327 27.5667C78.7955 27.5667 81.7069 30.0678 81.7069 33.2143C81.7069 35.1506 80.5799 36.8449 78.8894 37.813V37.2483C78.8894 36.3608 78.5137 35.554 77.7624 34.9892C77.6685 34.9085 77.6685 34.9085 77.5745 34.8279C78.3259 34.2631 78.8894 33.3756 78.8894 32.4075C78.8894 30.6325 77.1989 29.1803 75.1327 29.1803C73.0665 29.1803 71.376 30.6325 71.376 32.4075C71.376 33.3756 71.8456 34.2631 72.6909 34.8279ZM30.0526 38.8618C30.0526 39.5073 30.3343 40.072 30.8039 40.4754C30.3343 40.8788 30.0526 41.4436 30.0526 42.089C28.9256 41.3629 28.1742 40.2334 28.1742 38.8618C28.1742 36.6028 30.2404 34.8279 32.8701 34.8279C35.4998 34.8279 37.5659 36.6028 37.5659 38.8618C37.5659 40.1527 36.8146 41.3629 35.6876 42.089C35.6876 41.4436 35.4058 40.9595 34.9363 40.4754C35.4058 40.072 35.6876 39.5073 35.6876 38.8618C35.6876 37.4903 34.4667 36.4415 32.8701 36.4415C31.2735 36.4415 30.0526 37.4903 30.0526 38.8618ZM38.5051 71.6984V71.1336C38.5051 70.2462 38.1294 69.4394 37.3781 68.8746C37.2842 68.7939 37.2842 68.7939 37.1903 68.7133C37.9416 68.1485 38.5051 67.261 38.5051 66.2929C38.5051 64.5179 36.8146 63.0657 34.7484 63.0657C32.6823 63.0657 30.9917 64.5179 30.9917 66.2929C30.9917 67.261 31.4613 68.1485 32.3066 68.7133C31.4613 69.278 30.9917 70.1655 30.9917 71.1336V71.6984C29.3012 70.6496 28.1742 68.9553 28.1742 67.0997C28.1742 63.9532 31.0857 61.4521 34.7484 61.4521C38.4112 61.4521 41.3226 63.9532 41.3226 67.0997C41.3226 69.036 40.1956 70.7302 38.5051 71.6984ZM76.0719 58.2249C78.7015 58.2249 80.7677 59.9999 80.7677 62.2589C80.7677 63.5498 80.0164 64.76 78.8894 65.4861C78.8894 64.8406 78.6076 64.3566 78.138 63.8725C78.6076 63.4691 78.8894 62.9043 78.8894 62.2589C78.8894 60.8873 77.6685 59.8385 76.0719 59.8385C74.4753 59.8385 73.2544 60.8873 73.2544 62.2589C73.2544 62.9043 73.5361 63.4691 74.0057 63.8725C73.5361 64.2759 73.2544 64.8406 73.2544 65.4861C72.1274 64.76 71.376 63.6304 71.376 62.2589C71.376 59.9999 73.4422 58.2249 76.0719 58.2249ZM55.4101 67.9065V67.0997C55.4101 66.6156 55.0345 66.2929 54.471 66.2929C53.9075 66.2929 53.5318 66.6156 53.5318 67.0997V67.9065C51.2778 67.9065 49.3995 66.5349 48.9299 64.6793H60.0121C59.5425 66.5349 57.6642 67.9065 55.4101 67.9065ZM61.0452 61.4521H47.8968C47.3333 61.4521 46.9576 61.1294 46.9576 60.6453C46.9576 60.1612 47.3333 59.8385 47.8968 59.8385H61.0452C61.6087 59.8385 61.9843 60.1612 61.9843 60.6453C61.9843 61.1294 61.6087 61.4521 61.0452 61.4521ZM52.3109 50.399L50.1508 48.5434L51.7474 47.1718L53.9075 48.382C54.1892 48.5434 54.6588 48.5434 54.9406 48.382L57.1007 47.1718L58.6972 48.5434L56.5372 50.399C56.4432 50.5604 56.3493 50.7217 56.3493 50.9638V56.6113H52.5926V50.9638C52.5926 50.7217 52.4987 50.5604 52.3109 50.399ZM60.4817 54.7557C60.2938 54.9171 60.106 55.1591 60.106 55.4011V56.6113H58.2277V51.2865L60.7634 49.1081C61.1391 48.7854 61.1391 48.3013 60.7634 47.9786L57.9459 45.5582C57.6642 45.3162 57.1007 45.2355 56.725 45.4776L54.471 46.7684L52.217 45.4776C51.8413 45.2355 51.3717 45.3162 50.9961 45.5582L48.1785 47.9786C47.8029 48.3013 47.8029 48.7854 48.1785 49.1081L50.7143 51.2865V56.6113H48.836V55.4011C48.836 55.1591 48.742 54.9171 48.4603 54.7557C46.3002 53.2228 45.0793 50.9638 45.0793 48.5434C45.0793 45.5582 46.9576 42.9765 49.7751 41.6049V42.089C49.7751 42.5731 50.1508 42.8958 50.7143 42.8958C51.2778 42.8958 51.6535 42.5731 51.6535 42.089V40.8788C52.4987 40.6368 53.5318 40.4754 54.471 40.4754C57.9459 40.4754 60.9512 42.089 62.5478 44.5094H61.9843C61.4208 44.5094 61.0452 44.8321 61.0452 45.3162C61.0452 45.8003 61.4208 46.123 61.9843 46.123H63.3931C63.6748 46.8491 63.8627 47.7366 63.8627 48.5434C63.8627 50.9638 62.6418 53.2228 60.4817 54.7557Z" fill="#99DB21"/>
<path fill-rule="evenodd" clip-rule="evenodd" d="M54.0022 99.3704C83.8269 99.3704 108.004 77.3363 108.004 50.1559C108.004 22.9755 83.8269 0.941406 54.0022 0.941406C26.7968 0.941406 4.29013 19.2753 0.546852 43.1254C4.2165 21.091 25.9105 4.16859 52.1239 4.16859C80.9111 4.16859 104.248 24.5772 104.248 49.7525C104.248 74.9278 80.9111 95.3364 52.1239 95.3364C23.4113 95.3364 0.121069 75.0335 0.000470479 49.9483C0.000156929 50.0174 0 50.0866 0 50.1559C0 77.3363 24.1776 99.3704 54.0022 99.3704Z" fill="url(#paint0_linear_1139_103)"/>
<defs>
<linearGradient id="paint0_linear_1139_103" x1="54.0022" y1="0.941406" x2="54.0022" y2="99.3704" gradientUnits="userSpaceOnUse">
<stop stop-color="#FF7C03"/>
<stop offset="1" stop-color="#99DB21"/>
</linearGradient>
</defs>
</svg>
