<svg width="314" height="58" viewBox="0 0 314 58" fill="none" xmlns="http://www.w3.org/2000/svg">
<path id="COREBUSO" d="M2.02106 29.1C2.02106 25.392 2.84906 22.08 4.50506 19.164C6.19706 16.212 8.48306 13.926 11.3631 12.306C14.2791 10.65 17.5371 9.822 21.1371 9.822C25.3491 9.822 29.0391 10.902 32.2071 13.062C35.3751 15.222 37.5891 18.21 38.8491 22.026H30.1551C29.2911 20.226 28.0671 18.876 26.4831 17.976C24.9351 17.076 23.1351 16.626 21.0831 16.626C18.8871 16.626 16.9251 17.148 15.1971 18.192C13.5051 19.2 12.1731 20.64 11.2011 22.512C10.2651 24.384 9.79706 26.58 9.79706 29.1C9.79706 31.584 10.2651 33.78 11.2011 35.688C12.1731 37.56 13.5051 39.018 15.1971 40.062C16.9251 41.07 18.8871 41.574 21.0831 41.574C23.1351 41.574 24.9351 41.124 26.4831 40.224C28.0671 39.288 29.2911 37.92 30.1551 36.12H38.8491C37.5891 39.972 35.3751 42.978 32.2071 45.138C29.0751 47.262 25.3851 48.324 21.1371 48.324C17.5371 48.324 14.2791 47.514 11.3631 45.894C8.48306 44.238 6.19706 41.952 4.50506 39.036C2.84906 36.12 2.02106 32.808 2.02106 29.1ZM65.5023 48.378C61.9743 48.378 58.7343 47.55 55.7823 45.894C52.8303 44.238 50.4903 41.952 48.7623 39.036C47.0343 36.084 46.1703 32.754 46.1703 29.046C46.1703 25.374 47.0343 22.08 48.7623 19.164C50.4903 16.212 52.8303 13.908 55.7823 12.252C58.7343 10.596 61.9743 9.768 65.5023 9.768C69.0663 9.768 72.3063 10.596 75.2223 12.252C78.1743 13.908 80.4963 16.212 82.1883 19.164C83.9163 22.08 84.7803 25.374 84.7803 29.046C84.7803 32.754 83.9163 36.084 82.1883 39.036C80.4963 41.952 78.1743 44.238 75.2223 45.894C72.2703 47.55 69.0303 48.378 65.5023 48.378ZM65.5023 41.628C67.7703 41.628 69.7683 41.124 71.4963 40.116C73.2243 39.072 74.5743 37.596 75.5463 35.688C76.5183 33.78 77.0043 31.566 77.0043 29.046C77.0043 26.526 76.5183 24.33 75.5463 22.458C74.5743 20.55 73.2243 19.092 71.4963 18.084C69.7683 17.076 67.7703 16.572 65.5023 16.572C63.2343 16.572 61.2183 17.076 59.4543 18.084C57.7263 19.092 56.3763 20.55 55.4043 22.458C54.4323 24.33 53.9463 26.526 53.9463 29.046C53.9463 31.566 54.4323 33.78 55.4043 35.688C56.3763 37.596 57.7263 39.072 59.4543 40.116C61.2183 41.124 63.2343 41.628 65.5023 41.628ZM112.545 48L104.229 33.312H100.665V48H93.1047V10.308H107.253C110.169 10.308 112.653 10.83 114.705 11.874C116.757 12.882 118.287 14.268 119.295 16.032C120.339 17.76 120.861 19.704 120.861 21.864C120.861 24.348 120.141 26.598 118.701 28.614C117.261 30.594 115.119 31.962 112.275 32.718L121.293 48H112.545ZM100.665 27.642H106.983C109.035 27.642 110.565 27.156 111.573 26.184C112.581 25.176 113.085 23.79 113.085 22.026C113.085 20.298 112.581 18.966 111.573 18.03C110.565 17.058 109.035 16.572 106.983 16.572H100.665V27.642ZM137.958 16.41V25.86H150.648V31.854H137.958V41.844H152.268V48H130.398V10.254H152.268V16.41H137.958ZM183.223 28.668C185.347 29.064 187.093 30.126 188.461 31.854C189.829 33.582 190.513 35.562 190.513 37.794C190.513 39.81 190.009 41.592 189.001 43.14C188.029 44.652 186.607 45.84 184.735 46.704C182.863 47.568 180.649 48 178.093 48H161.839V10.308H177.391C179.947 10.308 182.143 10.722 183.979 11.55C185.851 12.378 187.255 13.53 188.191 15.006C189.163 16.482 189.649 18.156 189.649 20.028C189.649 22.224 189.055 24.06 187.867 25.536C186.715 27.012 185.167 28.056 183.223 28.668ZM169.399 25.86H176.311C178.111 25.86 179.497 25.464 180.469 24.672C181.441 23.844 181.927 22.674 181.927 21.162C181.927 19.65 181.441 18.48 180.469 17.652C179.497 16.824 178.111 16.41 176.311 16.41H169.399V25.86ZM177.013 41.844C178.849 41.844 180.271 41.412 181.279 40.548C182.323 39.684 182.845 38.46 182.845 36.876C182.845 35.256 182.305 33.996 181.225 33.096C180.145 32.16 178.687 31.692 176.851 31.692H169.399V41.844H177.013ZM206.69 10.308V33.636C206.69 36.192 207.356 38.154 208.688 39.522C210.02 40.854 211.892 41.52 214.304 41.52C216.752 41.52 218.642 40.854 219.974 39.522C221.306 38.154 221.972 36.192 221.972 33.636V10.308H229.586V33.582C229.586 36.786 228.884 39.504 227.48 41.736C226.112 43.932 224.258 45.588 221.918 46.704C219.614 47.82 217.04 48.378 214.196 48.378C211.388 48.378 208.832 47.82 206.528 46.704C204.26 45.588 202.46 43.932 201.128 41.736C199.796 39.504 199.13 36.786 199.13 33.582V10.308H206.69ZM252.604 48.378C249.976 48.378 247.6 47.928 245.476 47.028C243.388 46.128 241.732 44.832 240.508 43.14C239.284 41.448 238.654 39.45 238.618 37.146H246.718C246.826 38.694 247.366 39.918 248.338 40.818C249.346 41.718 250.714 42.168 252.442 42.168C254.206 42.168 255.592 41.754 256.6 40.926C257.608 40.062 258.112 38.946 258.112 37.578C258.112 36.462 257.77 35.544 257.086 34.824C256.402 34.104 255.538 33.546 254.494 33.15C253.486 32.718 252.082 32.25 250.282 31.746C247.834 31.026 245.836 30.324 244.288 29.64C242.776 28.92 241.462 27.858 240.346 26.454C239.266 25.014 238.726 23.106 238.726 20.73C238.726 18.498 239.284 16.554 240.4 14.898C241.516 13.242 243.082 11.982 245.098 11.118C247.114 10.218 249.418 9.768 252.01 9.768C255.898 9.768 259.048 10.722 261.46 12.63C263.908 14.502 265.258 17.13 265.51 20.514H257.194C257.122 19.218 256.564 18.156 255.52 17.328C254.512 16.464 253.162 16.032 251.47 16.032C249.994 16.032 248.806 16.41 247.906 17.166C247.042 17.922 246.61 19.02 246.61 20.46C246.61 21.468 246.934 22.314 247.582 22.998C248.266 23.646 249.094 24.186 250.066 24.618C251.074 25.014 252.478 25.482 254.278 26.022C256.726 26.742 258.724 27.462 260.272 28.182C261.82 28.902 263.152 29.982 264.268 31.422C265.384 32.862 265.942 34.752 265.942 37.092C265.942 39.108 265.42 40.98 264.376 42.708C263.332 44.436 261.802 45.822 259.786 46.866C257.77 47.874 255.376 48.378 252.604 48.378ZM292.693 48.378C289.165 48.378 285.925 47.55 282.973 45.894C280.021 44.238 277.681 41.952 275.953 39.036C274.225 36.084 273.361 32.754 273.361 29.046C273.361 25.374 274.225 22.08 275.953 19.164C277.681 16.212 280.021 13.908 282.973 12.252C285.925 10.596 289.165 9.768 292.693 9.768C296.257 9.768 299.497 10.596 302.413 12.252C305.365 13.908 307.687 16.212 309.379 19.164C311.107 22.08 311.971 25.374 311.971 29.046C311.971 32.754 311.107 36.084 309.379 39.036C307.687 41.952 305.365 44.238 302.413 45.894C299.461 47.55 296.221 48.378 292.693 48.378ZM292.693 41.628C294.961 41.628 296.959 41.124 298.687 40.116C300.415 39.072 301.765 37.596 302.737 35.688C303.709 33.78 304.195 31.566 304.195 29.046C304.195 26.526 303.709 24.33 302.737 22.458C301.765 20.55 300.415 19.092 298.687 18.084C296.959 17.076 294.961 16.572 292.693 16.572C290.425 16.572 288.409 17.076 286.645 18.084C284.917 19.092 283.567 20.55 282.595 22.458C281.623 24.33 281.137 26.526 281.137 29.046C281.137 31.566 281.623 33.78 282.595 35.688C283.567 37.596 284.917 39.072 286.645 40.116C288.409 41.124 290.425 41.628 292.693 41.628Z" fill="url(#paint0_radial_1253_384)"/>
<defs>
<radialGradient id="paint0_radial_1253_384" cx="0" cy="0" r="1" gradientUnits="userSpaceOnUse" gradientTransform="translate(31 -1.04653e-06) rotate(15.0941) scale(249.612 1351.35)">
<stop stop-color="#99DB21"/>
<stop offset="0.607292" stop-color="#FF7C03"/>
<stop offset="0.966667" stop-color="#2CBA83"/>
</radialGradient>
</defs>
</svg>
