<svg id="headerBrand" width="333" height="58" viewBox="0 0 333 58" fill="none" xmlns="http://www.w3.org/2000/svg">
<path d="M4.64939 19.164L3.78179 18.6667L3.77983 18.6702L4.64939 19.164ZM11.5074 12.306L11.9977 13.1776L12.0012 13.1756L11.5074 12.306ZM38.9934 22.026V23.026H40.3767L39.943 21.7125L38.9934 22.026ZM30.2994 22.026L29.3979 22.4587L29.6702 23.026H30.2994V22.026ZM26.6274 17.976L26.1247 18.8405L26.1334 18.8455L26.6274 17.976ZM15.3414 18.192L15.8532 19.0511L15.8585 19.0479L15.3414 18.192ZM11.3454 22.512L10.4579 22.0512L10.4544 22.058L10.451 22.0648L11.3454 22.512ZM11.3454 35.688L10.4476 36.1284L10.4526 36.1387L10.4579 36.1488L11.3454 35.688ZM15.3414 40.062L14.8163 40.913L14.8268 40.9195L14.8375 40.9258L15.3414 40.062ZM26.6274 40.224L27.13 41.0885L27.1361 41.0849L26.6274 40.224ZM30.2994 36.12V35.12H29.6702L29.3979 35.6873L30.2994 36.12ZM38.9934 36.12L39.9438 36.4309L40.3726 35.12H38.9934V36.12ZM32.3514 45.138L32.9127 45.9656L32.9147 45.9642L32.3514 45.138ZM11.5074 45.894L11.0089 46.7609L11.0153 46.7646L11.0217 46.7682L11.5074 45.894ZM4.64939 39.036L3.77979 39.5298L3.78445 39.5379L4.64939 39.036ZM3.16539 29.1C3.16539 25.5464 3.95725 22.4078 5.51895 19.6578L3.77983 18.6702C2.02953 21.7522 1.16539 25.2376 1.16539 29.1H3.16539ZM5.51698 19.6613C7.12207 16.8609 9.27972 14.7064 11.9977 13.1776L11.0171 11.4344C7.97507 13.1456 5.56072 15.5631 3.7818 18.6667L5.51698 19.6613ZM12.0012 13.1756C14.7556 11.6113 17.8414 10.822 21.2814 10.822V8.822C17.5214 8.822 14.0911 9.68868 11.0136 11.4364L12.0012 13.1756ZM21.2814 10.822C25.3131 10.822 28.8024 11.8526 31.7881 13.8882L32.9147 12.2358C29.5644 9.95144 25.6737 8.822 21.2814 8.822V10.822ZM31.7881 13.8882C34.7653 15.9182 36.8492 18.7215 38.0438 22.3395L39.943 21.7125C38.6176 17.6985 36.2735 14.5258 32.9147 12.2358L31.7881 13.8882ZM38.9934 21.026H30.2994V23.026H38.9934V21.026ZM31.2009 21.5933C30.2576 19.628 28.8996 18.1169 27.1214 17.1065L26.1334 18.8455C27.5232 19.6351 28.6132 20.824 29.3979 22.4587L31.2009 21.5933ZM27.13 17.1115C25.4082 16.1105 23.4298 15.626 21.2274 15.626V17.626C23.129 17.626 24.7506 18.0415 26.1248 18.8405L27.13 17.1115ZM21.2274 15.626C18.8657 15.626 16.7219 16.1896 14.8243 17.3361L15.8585 19.0479C17.4169 18.1064 19.1971 17.626 21.2274 17.626V15.626ZM14.8296 17.3329C12.9663 18.4429 11.5093 20.0263 10.4579 22.0512L12.2329 22.9728C13.1255 21.2537 14.3325 19.9571 15.8532 19.0511L14.8296 17.3329ZM10.451 22.0648C9.43277 24.1012 8.94139 26.4561 8.94139 29.1H10.9414C10.9414 26.7039 11.386 24.6668 12.2398 22.9592L10.451 22.0648ZM8.94139 29.1C8.94139 31.711 9.43389 34.062 10.4476 36.1284L12.2432 35.2476C11.3849 33.498 10.9414 31.457 10.9414 29.1H8.94139ZM10.4579 36.1488C11.5079 38.1711 12.961 39.7683 14.8163 40.913L15.8665 39.211C14.3378 38.2677 13.1269 36.9489 12.2329 35.2272L10.4579 36.1488ZM14.8375 40.9258C16.7331 42.0316 18.8721 42.574 21.2274 42.574V40.574C19.1906 40.574 17.4057 40.1084 15.8453 39.1982L14.8375 40.9258ZM21.2274 42.574C23.4298 42.574 25.4082 42.0895 27.13 41.0885L26.1248 39.3595C24.7506 40.1585 23.129 40.574 21.2274 40.574V42.574ZM27.1361 41.0849C28.9051 40.0396 30.2589 38.5153 31.2009 36.5527L29.3979 35.6873C28.6119 37.3247 27.5177 38.5364 26.1187 39.3631L27.1361 41.0849ZM30.2994 37.12H38.9934V35.12H30.2994V37.12ZM38.0429 35.8091C36.8474 39.4641 34.7629 42.2835 31.7881 44.3118L32.9147 45.9642C36.2759 43.6725 38.6194 40.4799 39.9438 36.4309L38.0429 35.8091ZM31.7901 44.3104C28.8436 46.3086 25.3547 47.324 21.2814 47.324V49.324C25.7041 49.324 29.5952 48.2154 32.9127 45.9656L31.7901 44.3104ZM21.2814 47.324C17.8375 47.324 14.7488 46.5508 11.993 45.0198L11.0217 46.7682C14.098 48.4772 17.5253 49.324 21.2814 49.324V47.324ZM12.0059 45.0271C9.28026 43.4599 7.11967 41.3008 5.51433 38.5341L3.78445 39.5379C5.56311 42.6032 7.97452 45.0161 11.0089 46.7609L12.0059 45.0271ZM5.51895 38.5422C3.95725 35.7922 3.16539 32.6536 3.16539 29.1H1.16539C1.16539 32.9624 2.02953 36.4478 3.77983 39.5298L5.51895 38.5422Z" fill="#FF7C03"/>
<path d="M58.8028 45.894L59.292 45.0219L59.292 45.0219L58.8028 45.894ZM51.7828 39.036L50.9198 39.5412L50.9225 39.5458L51.7828 39.036ZM51.7828 19.164L52.6431 19.6738L52.6458 19.6692L51.7828 19.164ZM58.8028 12.252L58.3135 11.3799L58.3135 11.3799L58.8028 12.252ZM78.2428 12.252L77.749 13.1216L77.7535 13.1241L78.2428 12.252ZM85.2088 19.164L84.3412 19.6613L84.3448 19.6676L84.3485 19.6738L85.2088 19.164ZM85.2088 39.036L84.3458 38.5308L84.3438 38.5341L85.2088 39.036ZM78.2428 45.894L77.7535 45.0219L77.7535 45.0219L78.2428 45.894ZM74.5168 40.116L75.0207 40.9798L75.0273 40.9759L75.0339 40.9719L74.5168 40.116ZM78.5668 35.688L79.4578 36.1419L79.4578 36.1419L78.5668 35.688ZM78.5668 22.458L77.6757 22.9119L77.6793 22.9188L78.5668 22.458ZM74.5168 18.084L74.0129 18.9478L74.0129 18.9478L74.5168 18.084ZM62.4748 18.084L61.9786 17.2157L61.9709 17.2202L62.4748 18.084ZM58.4248 22.458L59.3123 22.9188L59.3158 22.9119L58.4248 22.458ZM58.4248 35.688L59.3158 35.2341L59.3158 35.2341L58.4248 35.688ZM62.4748 40.116L61.9577 40.9719L61.9681 40.9782L61.9786 40.9842L62.4748 40.116ZM68.5228 47.378C65.1586 47.378 62.0882 46.5904 59.292 45.0219L58.3135 46.7661C61.4214 48.5096 64.831 49.378 68.5228 49.378V47.378ZM59.292 45.0219C56.4937 43.452 54.2815 41.2911 52.6431 38.5262L50.9225 39.5458C52.74 42.6129 55.2079 45.024 58.3135 46.7661L59.292 45.0219ZM52.6458 38.5308C51.015 35.7448 50.1908 32.5918 50.1908 29.046H48.1908C48.1908 32.9162 49.0946 36.4232 50.9198 39.5412L52.6458 38.5308ZM50.1908 29.046C50.1908 25.5379 51.0141 22.4227 52.6431 19.6738L50.9225 18.6542C49.0955 21.7373 48.1908 25.2101 48.1908 29.046H50.1908ZM52.6458 19.6692C54.285 16.8688 56.4967 14.6922 59.292 13.1241L58.3135 11.3799C55.2048 13.1238 52.7365 15.5552 50.9198 18.6588L52.6458 19.6692ZM59.292 13.1241C62.0882 11.5556 65.1586 10.768 68.5228 10.768V8.768C64.831 8.768 61.4214 9.63641 58.3135 11.3799L59.292 13.1241ZM68.5228 10.768C71.9249 10.768 74.993 11.5564 77.749 13.1216L78.7366 11.3824C75.6606 9.63555 72.2486 8.768 68.5228 8.768V10.768ZM77.7535 13.1241C80.547 14.6912 82.7386 16.8653 84.3412 19.6613L86.0764 18.6667C84.295 15.5587 81.8426 13.1248 78.732 11.3799L77.7535 13.1241ZM84.3485 19.6738C85.9775 22.4227 86.8008 25.5379 86.8008 29.046H88.8008C88.8008 25.2101 87.8961 21.7373 86.0691 18.6542L84.3485 19.6738ZM86.8008 29.046C86.8008 32.5918 85.9766 35.7448 84.3458 38.5308L86.0718 39.5412C87.897 36.4232 88.8008 32.9162 88.8008 29.046H86.8008ZM84.3438 38.5341C82.7421 41.2947 80.5501 43.4531 77.7535 45.0219L78.732 46.7661C81.8395 45.0229 84.2915 42.6093 86.0737 39.5379L84.3438 38.5341ZM77.7535 45.0219C74.9574 46.5904 71.887 47.378 68.5228 47.378V49.378C72.2146 49.378 75.6242 48.5096 78.732 46.7661L77.7535 45.0219ZM68.5228 42.628C70.9437 42.628 73.1201 42.0884 75.0207 40.9798L74.0129 39.2522C72.4574 40.1596 70.6379 40.628 68.5228 40.628V42.628ZM75.0339 40.9719C76.9314 39.8255 78.4065 38.2057 79.4578 36.1419L77.6757 35.2341C76.7831 36.9863 75.5581 38.3185 73.9997 39.2601L75.0339 40.9719ZM79.4578 36.1419C80.5131 34.0705 81.0248 31.696 81.0248 29.046H79.0248C79.0248 31.436 78.5645 33.4895 77.6757 35.2341L79.4578 36.1419ZM81.0248 29.046C81.0248 26.3966 80.5133 24.0367 79.4543 21.9972L77.6793 22.9188C78.5643 24.6232 79.0248 26.6554 79.0248 29.046H81.0248ZM79.4578 22.0041C78.4052 19.9377 76.9261 18.3318 75.0207 17.2202L74.0129 18.9478C75.5634 19.8522 76.7844 21.1623 77.6757 22.9119L79.4578 22.0041ZM75.0207 17.2202C73.1201 16.1116 70.9437 15.572 68.5228 15.572V17.572C70.6379 17.572 72.4574 18.0404 74.0129 18.9478L75.0207 17.2202ZM68.5228 15.572C66.1014 15.572 63.9107 16.1117 61.9786 17.2158L62.9709 18.9522C64.5668 18.0403 66.4081 17.572 68.5228 17.572V15.572ZM61.9709 17.2202C60.0654 18.3318 58.5864 19.9377 57.5337 22.0041L59.3158 22.9119C60.2072 21.1623 61.4281 19.8522 62.9787 18.9478L61.9709 17.2202ZM57.5373 21.9972C56.4783 24.0367 55.9668 26.3966 55.9668 29.046H57.9668C57.9668 26.6554 58.4273 24.6232 59.3123 22.9188L57.5373 21.9972ZM55.9668 29.046C55.9668 31.696 56.4785 34.0705 57.5337 36.1419L59.3158 35.2341C58.4271 33.4895 57.9668 31.436 57.9668 29.046H55.9668ZM57.5337 36.1419C58.5851 38.2057 60.0601 39.8255 61.9577 40.9719L62.9919 39.2601C61.4334 38.3185 60.2085 36.9863 59.3158 35.2341L57.5337 36.1419ZM61.9786 40.9842C63.9107 42.0883 66.1014 42.628 68.5228 42.628V40.628C66.4081 40.628 64.5668 40.1597 62.9709 39.2478L61.9786 40.9842Z" fill="#FF7C03"/>
<path d="M146.416 16.41V15.41H145.416V16.41H146.416ZM146.416 25.86H145.416V26.86H146.416V25.86ZM159.106 25.86H160.106V24.86H159.106V25.86ZM159.106 31.854V32.854H160.106V31.854H159.106ZM146.416 31.854V30.854H145.416V31.854H146.416ZM146.416 41.844H145.416V42.844H146.416V41.844ZM160.726 41.844H161.726V40.844H160.726V41.844ZM160.726 48V49H161.726V48H160.726ZM138.856 48H137.856V49H138.856V48ZM138.856 10.254V9.254H137.856V10.254H138.856ZM160.726 10.254H161.726V9.254H160.726V10.254ZM160.726 16.41V17.41H161.726V16.41H160.726ZM145.416 16.41V25.86H147.416V16.41H145.416ZM146.416 26.86H159.106V24.86H146.416V26.86ZM158.106 25.86V31.854H160.106V25.86H158.106ZM159.106 30.854H146.416V32.854H159.106V30.854ZM145.416 31.854V41.844H147.416V31.854H145.416ZM146.416 42.844H160.726V40.844H146.416V42.844ZM159.726 41.844V48H161.726V41.844H159.726ZM160.726 47H138.856V49H160.726V47ZM139.856 48V10.254H137.856V48H139.856ZM138.856 11.254H160.726V9.254H138.856V11.254ZM159.726 10.254V16.41H161.726V10.254H159.726ZM160.726 15.41H146.416V17.41H160.726V15.41Z" fill="#FF7C03"/>
<path d="M194.26 28.668L193.96 27.7142L194.077 29.6511L194.26 28.668ZM199.498 31.854L200.282 31.2333L200.282 31.2333L199.498 31.854ZM200.038 43.14L199.2 42.5943L199.197 42.5992L200.038 43.14ZM195.772 46.704L196.191 47.612L196.191 47.612L195.772 46.704ZM172.876 48H171.876V49H172.876V48ZM172.876 10.308V9.308H171.876V10.308H172.876ZM195.016 11.55L194.605 12.4616L194.612 12.4645L195.016 11.55ZM199.228 15.006L198.384 15.5415L198.388 15.5488L198.393 15.556L199.228 15.006ZM198.904 25.536L198.125 24.909L198.121 24.9148L198.116 24.9207L198.904 25.536ZM180.436 25.86H179.436V26.86H180.436V25.86ZM191.506 24.672L192.138 25.4472L192.147 25.4403L192.155 25.4332L191.506 24.672ZM191.506 17.652L192.155 16.8908L192.155 16.8908L191.506 17.652ZM180.436 16.41V15.41H179.436V16.41H180.436ZM192.316 40.548L191.679 39.7776L191.672 39.7831L191.666 39.7887L192.316 40.548ZM192.262 33.096L191.607 33.8517L191.615 33.858L191.622 33.8642L192.262 33.096ZM180.436 31.692V30.692H179.436V31.692H180.436ZM180.436 41.844H179.436V42.844H180.436V41.844ZM194.077 29.6511C195.958 30.0018 197.493 30.9319 198.714 32.4747L200.282 31.2333C198.768 29.3201 196.81 28.1262 194.444 27.6849L194.077 29.6511ZM198.714 32.4747C199.941 34.0236 200.55 35.7842 200.55 37.794H202.55C202.55 35.3398 201.792 33.1404 200.282 31.2333L198.714 32.4747ZM200.55 37.794C200.55 39.6347 200.093 41.2235 199.2 42.5943L200.876 43.6857C202 41.9605 202.55 39.9853 202.55 37.794H200.55ZM199.197 42.5992C198.343 43.9287 197.079 44.9998 195.353 45.796L196.191 47.612C198.21 46.6802 199.79 45.3753 200.88 43.6808L199.197 42.5992ZM195.353 45.796C193.64 46.5867 191.575 47 189.13 47V49C191.797 49 194.16 48.5493 196.191 47.612L195.353 45.796ZM189.13 47H172.876V49H189.13V47ZM173.876 48V10.308H171.876V48H173.876ZM172.876 11.308H188.428V9.308H172.876V11.308ZM188.428 11.308C190.879 11.308 192.928 11.7053 194.605 12.4616L195.428 10.6384C193.432 9.73869 191.089 9.308 188.428 9.308V11.308ZM194.612 12.4645C196.335 13.2265 197.571 14.2596 198.384 15.5415L200.073 14.4705C199.014 12.8004 197.442 11.5295 195.421 10.6355L194.612 12.4645ZM198.393 15.556C199.251 16.8588 199.686 18.3393 199.686 20.028H201.686C201.686 17.9727 201.15 16.1052 200.064 14.456L198.393 15.556ZM199.686 20.028C199.686 22.0339 199.148 23.6382 198.125 24.909L199.683 26.163C201.037 24.4818 201.686 22.4141 201.686 20.028H199.686ZM198.116 24.9207C197.1 26.2228 195.729 27.1573 193.96 27.7142L194.561 29.6218C196.68 28.9547 198.405 27.8012 199.693 26.1513L198.116 24.9207ZM180.436 26.86H187.348V24.86H180.436V26.86ZM187.348 26.86C189.281 26.86 190.924 26.4363 192.138 25.4472L190.875 23.8968C190.145 24.4917 189.016 24.86 187.348 24.86V26.86ZM192.155 25.4332C193.392 24.3798 193.964 22.9074 193.964 21.162H191.964C191.964 22.4406 191.565 23.3082 190.858 23.9108L192.155 25.4332ZM193.964 21.162C193.964 19.4166 193.392 17.9442 192.155 16.8908L190.858 18.4132C191.565 19.0158 191.964 19.8834 191.964 21.162H193.964ZM192.155 16.8908C190.94 15.856 189.29 15.41 187.348 15.41V17.41C189.007 17.41 190.129 17.792 190.858 18.4132L192.155 16.8908ZM187.348 15.41H180.436V17.41H187.348V15.41ZM179.436 16.41V25.86H181.436V16.41H179.436ZM188.05 42.844C190.034 42.844 191.719 42.3771 192.967 41.3073L191.666 39.7887C190.898 40.4469 189.739 40.844 188.05 40.844V42.844ZM192.954 41.3184C194.267 40.2314 194.882 38.7019 194.882 36.876H192.882C192.882 38.2181 192.453 39.1366 191.679 39.7776L192.954 41.3184ZM194.882 36.876C194.882 35.0097 194.247 33.4479 192.903 32.3278L191.622 33.8642C192.438 34.5441 192.882 35.5023 192.882 36.876H194.882ZM192.917 32.3403C191.609 31.2062 189.895 30.692 187.888 30.692V32.692C189.554 32.692 190.756 33.1138 191.607 33.8517L192.917 32.3403ZM187.888 30.692H180.436V32.692H187.888V30.692ZM179.436 31.692V41.844H181.436V31.692H179.436ZM180.436 42.844H188.05V40.844H180.436V42.844Z" fill="#FF7C03"/>
<path d="M301.803 45.894L302.292 45.0219L302.292 45.0219L301.803 45.894ZM294.783 39.036L293.92 39.5412L293.922 39.5458L294.783 39.036ZM294.783 19.164L295.643 19.6738L295.646 19.6692L294.783 19.164ZM301.803 12.252L301.314 11.3799L301.314 11.3799L301.803 12.252ZM321.243 12.252L320.749 13.1216L320.754 13.1241L321.243 12.252ZM328.209 19.164L327.341 19.6613L327.345 19.6676L327.348 19.6738L328.209 19.164ZM328.209 39.036L327.346 38.5308L327.344 38.5341L328.209 39.036ZM321.243 45.894L320.754 45.0219L320.754 45.0219L321.243 45.894ZM317.517 40.116L318.021 40.9798L318.027 40.9759L318.034 40.9719L317.517 40.116ZM321.567 35.688L322.458 36.1419L322.458 36.1419L321.567 35.688ZM321.567 22.458L320.676 22.9119L320.679 22.9188L321.567 22.458ZM317.517 18.084L317.013 18.9478L317.013 18.9478L317.517 18.084ZM305.475 18.084L304.979 17.2157L304.971 17.2202L305.475 18.084ZM301.425 22.458L302.312 22.9188L302.316 22.9119L301.425 22.458ZM301.425 35.688L302.316 35.2341L302.316 35.2341L301.425 35.688ZM305.475 40.116L304.958 40.9719L304.968 40.9782L304.979 40.9842L305.475 40.116ZM311.523 47.378C308.159 47.378 305.088 46.5904 302.292 45.0219L301.314 46.7661C304.421 48.5096 307.831 49.378 311.523 49.378V47.378ZM302.292 45.0219C299.494 43.452 297.282 41.2911 295.643 38.5262L293.922 39.5458C295.74 42.6129 298.208 45.024 301.314 46.7661L302.292 45.0219ZM295.646 38.5308C294.015 35.7448 293.191 32.5918 293.191 29.046H291.191C291.191 32.9162 292.095 36.4232 293.92 39.5412L295.646 38.5308ZM293.191 29.046C293.191 25.5379 294.014 22.4227 295.643 19.6738L293.922 18.6542C292.095 21.7373 291.191 25.2101 291.191 29.046H293.191ZM295.646 19.6692C297.285 16.8688 299.497 14.6922 302.292 13.1241L301.314 11.3799C298.205 13.1238 295.737 15.5552 293.92 18.6588L295.646 19.6692ZM302.292 13.1241C305.088 11.5556 308.159 10.768 311.523 10.768V8.768C307.831 8.768 304.421 9.63641 301.314 11.3799L302.292 13.1241ZM311.523 10.768C314.925 10.768 317.993 11.5564 320.749 13.1216L321.737 11.3824C318.661 9.63555 315.249 8.768 311.523 8.768V10.768ZM320.754 13.1241C323.547 14.6912 325.739 16.8653 327.341 19.6613L329.076 18.6667C327.295 15.5587 324.843 13.1248 321.732 11.3799L320.754 13.1241ZM327.348 19.6738C328.977 22.4227 329.801 25.5379 329.801 29.046H331.801C331.801 25.2101 330.896 21.7373 329.069 18.6542L327.348 19.6738ZM329.801 29.046C329.801 32.5918 328.977 35.7448 327.346 38.5308L329.072 39.5412C330.897 36.4232 331.801 32.9162 331.801 29.046H329.801ZM327.344 38.5341C325.742 41.2947 323.55 43.4531 320.754 45.0219L321.732 46.7661C324.839 45.0229 327.292 42.6093 329.074 39.5379L327.344 38.5341ZM320.754 45.0219C317.957 46.5904 314.887 47.378 311.523 47.378V49.378C315.215 49.378 318.624 48.5096 321.732 46.7661L320.754 45.0219ZM311.523 42.628C313.944 42.628 316.12 42.0884 318.021 40.9798L317.013 39.2522C315.457 40.1596 313.638 40.628 311.523 40.628V42.628ZM318.034 40.9719C319.931 39.8255 321.406 38.2057 322.458 36.1419L320.676 35.2341C319.783 36.9863 318.558 38.3185 317 39.2601L318.034 40.9719ZM322.458 36.1419C323.513 34.0705 324.025 31.696 324.025 29.046H322.025C322.025 31.436 321.564 33.4895 320.676 35.2341L322.458 36.1419ZM324.025 29.046C324.025 26.3966 323.513 24.0367 322.454 21.9972L320.679 22.9188C321.564 24.6232 322.025 26.6554 322.025 29.046H324.025ZM322.458 22.0041C321.405 19.9377 319.926 18.3318 318.021 17.2202L317.013 18.9478C318.563 19.8522 319.784 21.1623 320.676 22.9119L322.458 22.0041ZM318.021 17.2202C316.12 16.1116 313.944 15.572 311.523 15.572V17.572C313.638 17.572 315.457 18.0404 317.013 18.9478L318.021 17.2202ZM311.523 15.572C309.101 15.572 306.911 16.1117 304.979 17.2158L305.971 18.9522C307.567 18.0403 309.408 17.572 311.523 17.572V15.572ZM304.971 17.2202C303.065 18.3318 301.586 19.9377 300.534 22.0041L302.316 22.9119C303.207 21.1623 304.428 19.8522 305.979 18.9478L304.971 17.2202ZM300.537 21.9972C299.478 24.0367 298.967 26.3966 298.967 29.046H300.967C300.967 26.6554 301.427 24.6232 302.312 22.9188L300.537 21.9972ZM298.967 29.046C298.967 31.696 299.478 34.0705 300.534 36.1419L302.316 35.2341C301.427 33.4895 300.967 31.436 300.967 29.046H298.967ZM300.534 36.1419C301.585 38.2057 303.06 39.8255 304.958 40.9719L305.992 39.2601C304.433 38.3185 303.208 36.9863 302.316 35.2341L300.534 36.1419ZM304.979 40.9842C306.911 42.0883 309.101 42.628 311.523 42.628V40.628C309.408 40.628 307.567 40.1597 305.971 39.2478L304.979 40.9842Z" fill="#FF7C03"/>
<path d="M261.659 47.028L261.263 47.9463L261.269 47.9488L261.659 47.028ZM256.691 43.14L255.881 43.7261L255.881 43.7261L256.691 43.14ZM254.801 37.146V36.146H253.785L253.801 37.1616L254.801 37.146ZM262.901 37.146L263.898 37.0764L263.834 36.146H262.901V37.146ZM264.521 40.818L263.841 41.5518L263.848 41.5579L263.855 41.5639L264.521 40.818ZM272.783 40.926L273.418 41.6987L273.426 41.6921L273.434 41.6853L272.783 40.926ZM273.269 34.824L272.544 35.5127L272.544 35.5127L273.269 34.824ZM270.677 33.15L270.283 34.0691L270.302 34.0775L270.322 34.085L270.677 33.15ZM266.465 31.746L266.183 32.7054L266.195 32.709L266.465 31.746ZM260.471 29.64L260.041 30.5429L260.054 30.549L260.067 30.5547L260.471 29.64ZM256.529 26.454L255.729 27.054L255.737 27.0652L255.746 27.0762L256.529 26.454ZM256.583 14.898L257.412 15.4569L257.412 15.4569L256.583 14.898ZM261.281 11.118L261.675 12.0371L261.682 12.0342L261.689 12.0311L261.281 11.118ZM277.643 12.63L277.022 13.4143L277.029 13.4194L277.035 13.4244L277.643 12.63ZM281.693 20.514V21.514H282.77L282.69 20.4397L281.693 20.514ZM273.377 20.514L272.378 20.5695L272.431 21.514H273.377V20.514ZM271.703 17.328L271.052 18.0873L271.067 18.0997L271.081 18.1115L271.703 17.328ZM264.089 17.166L263.446 16.4003L263.438 16.4068L263.43 16.4134L264.089 17.166ZM263.765 22.998L263.039 23.6857L263.058 23.7054L263.077 23.724L263.765 22.998ZM266.249 24.618L265.843 25.5318L265.863 25.5407L265.883 25.5487L266.249 24.618ZM270.461 26.022L270.174 26.9798L270.179 26.9814L270.461 26.022ZM280.451 31.422L279.66 32.0346L279.66 32.0346L280.451 31.422ZM280.559 42.708L279.703 42.1909L279.703 42.1909L280.559 42.708ZM275.969 46.866L276.416 47.7604L276.422 47.7573L276.429 47.754L275.969 46.866ZM268.787 47.378C266.274 47.378 264.034 46.9482 262.049 46.1072L261.269 47.9488C263.532 48.9078 266.043 49.378 268.787 49.378V47.378ZM262.055 46.1097C260.117 45.2745 258.61 44.087 257.501 42.5539L255.881 43.7261C257.22 45.577 259.025 46.9815 261.263 47.9463L262.055 46.1097ZM257.501 42.5539C256.41 41.0452 255.834 39.2515 255.801 37.1304L253.801 37.1616C253.84 39.6485 254.524 41.8508 255.881 43.7261L257.501 42.5539ZM254.801 38.146H262.901V36.146H254.801V38.146ZM261.903 37.2156C262.026 38.9709 262.651 40.4497 263.841 41.5518L265.2 40.0842C264.447 39.3863 263.992 38.4171 263.898 37.0764L261.903 37.2156ZM263.855 41.5639C265.093 42.6692 266.722 43.168 268.625 43.168V41.168C267.072 41.168 265.965 40.7668 265.187 40.0721L263.855 41.5639ZM268.625 43.168C270.539 43.168 272.177 42.7182 273.418 41.6987L272.148 40.1533C271.373 40.7898 270.239 41.168 268.625 41.168V43.168ZM273.434 41.6853C274.671 40.6247 275.295 39.2277 275.295 37.578H273.295C273.295 38.6643 272.911 39.4993 272.132 40.1667L273.434 41.6853ZM275.295 37.578C275.295 36.24 274.877 35.0646 273.994 34.1352L272.544 35.5127C273.029 36.0234 273.295 36.684 273.295 37.578H275.295ZM273.994 34.1352C273.194 33.2936 272.198 32.6576 271.032 32.215L270.322 34.085C271.243 34.4344 271.975 34.9144 272.544 35.5127L273.994 34.1352ZM271.071 32.2309C270.004 31.7737 268.552 31.2919 266.735 30.783L266.195 32.709C267.978 33.2081 269.334 33.6623 270.283 34.0691L271.071 32.2309ZM266.747 30.7866C264.322 30.0734 262.369 29.3854 260.875 28.7253L260.067 30.5547C261.669 31.2626 263.712 31.9786 266.183 32.7054L266.747 30.7866ZM260.901 28.7371C259.536 28.0872 258.34 27.1252 257.312 25.8318L255.746 27.0762C256.95 28.5908 258.382 29.7528 260.041 30.5429L260.901 28.7371ZM257.329 25.854C256.415 24.6352 255.909 22.9586 255.909 20.73H253.909C253.909 23.2534 254.483 25.3928 255.729 27.054L257.329 25.854ZM255.909 20.73C255.909 18.6728 256.42 16.9286 257.412 15.4569L255.754 14.3391C254.513 16.1794 253.909 18.3232 253.909 20.73H255.909ZM257.412 15.4569C258.41 13.9758 259.817 12.8331 261.675 12.0371L260.887 10.1989C258.712 11.1309 256.988 12.5082 255.754 14.3391L257.412 15.4569ZM261.689 12.0311C263.556 11.1975 265.717 10.768 268.193 10.768V8.768C265.485 8.768 263.038 9.2385 260.873 10.2049L261.689 12.0311ZM268.193 10.768C271.916 10.768 274.829 11.6794 277.022 13.4143L278.263 11.8457C275.632 9.76457 272.245 8.768 268.193 8.768V10.768ZM277.035 13.4244C279.232 15.1043 280.462 17.4567 280.696 20.5883L282.69 20.4397C282.419 16.8033 280.95 13.8997 278.25 11.8356L277.035 13.4244ZM281.693 19.514H273.377V21.514H281.693V19.514ZM274.375 20.4585C274.287 18.8686 273.585 17.5447 272.324 16.5445L271.081 18.1115C271.908 18.7673 272.323 19.5674 272.378 20.5695L274.375 20.4585ZM272.354 16.5687C271.119 15.5106 269.516 15.032 267.653 15.032V17.032C269.173 17.032 270.271 17.4174 271.052 18.0873L272.354 16.5687ZM267.653 15.032C266.003 15.032 264.568 15.4574 263.446 16.4003L264.732 17.9317C265.41 17.3626 266.35 17.032 267.653 17.032V15.032ZM263.43 16.4134C262.296 17.4058 261.793 18.8107 261.793 20.46H263.793C263.793 19.2293 264.154 18.4382 264.747 17.9186L263.43 16.4134ZM261.793 20.46C261.793 21.7042 262.202 22.8022 263.039 23.6857L264.491 22.3103C264.032 21.8258 263.793 21.2318 263.793 20.46H261.793ZM263.077 23.724C263.854 24.4595 264.78 25.0595 265.843 25.5318L266.655 23.7042C265.774 23.3125 265.044 22.8325 264.453 22.272L263.077 23.724ZM265.883 25.5487C266.929 25.9596 268.363 26.4367 270.174 26.9798L270.748 25.0642C268.959 24.5273 267.585 24.0684 266.615 23.6872L265.883 25.5487ZM270.179 26.9814C272.6 27.6935 274.546 28.3973 276.033 29.0887L276.877 27.2753C275.267 26.5267 273.218 25.7905 270.743 25.0626L270.179 26.9814ZM276.033 29.0887C277.427 29.737 278.635 30.7119 279.66 32.0346L281.241 30.8094C280.034 29.2521 278.579 28.067 276.877 27.2753L276.033 29.0887ZM279.66 32.0346C280.606 33.2548 281.125 34.9101 281.125 37.092H283.125C283.125 34.5939 282.528 32.4692 281.241 30.8094L279.66 32.0346ZM281.125 37.092C281.125 38.9254 280.653 40.6187 279.703 42.1909L281.415 43.2251C282.553 41.3413 283.125 39.2906 283.125 37.092H281.125ZM279.703 42.1909C278.766 43.7421 277.382 45.0079 275.509 45.978L276.429 47.754C278.587 46.6361 280.264 45.1299 281.415 43.2251L279.703 42.1909ZM275.522 45.9716C273.673 46.896 271.439 47.378 268.787 47.378V49.378C271.679 49.378 274.233 48.852 276.416 47.7604L275.522 45.9716Z" fill="#FF7C03"/>
<path d="M220.352 10.308H221.352V9.308H220.352V10.308ZM222.35 39.522L221.633 40.2197L221.643 40.2291L222.35 39.522ZM233.636 39.522L234.343 40.2292L234.352 40.2196L233.636 39.522ZM235.634 10.308V9.308H234.634V10.308H235.634ZM243.248 10.308H244.248V9.308H243.248V10.308ZM241.142 41.736L240.295 41.2035L240.293 41.2073L241.142 41.736ZM235.58 46.704L235.149 45.8014L235.144 45.804L235.58 46.704ZM220.19 46.704L219.748 47.6013L219.754 47.604L220.19 46.704ZM214.79 41.736L213.931 42.2485L213.935 42.2546L214.79 41.736ZM212.792 10.308V9.308H211.792V10.308H212.792ZM219.352 10.308V33.636H221.352V10.308H219.352ZM219.352 33.636C219.352 36.3619 220.065 38.6087 221.633 40.2196L223.066 38.8244C221.971 37.6993 221.352 36.0221 221.352 33.636H219.352ZM221.643 40.2291C223.211 41.7974 225.367 42.52 227.966 42.52V40.52C225.741 40.52 224.153 39.9106 223.057 38.8149L221.643 40.2291ZM227.966 42.52C230.596 42.52 232.772 41.8 234.343 40.2291L232.929 38.8149C231.836 39.908 230.231 40.52 227.966 40.52V42.52ZM234.352 40.2196C235.921 38.6087 236.634 36.3619 236.634 33.636H234.634C234.634 36.0221 234.015 37.6993 232.919 38.8244L234.352 40.2196ZM236.634 33.636V10.308H234.634V33.636H236.634ZM235.634 11.308H243.248V9.308H235.634V11.308ZM242.248 10.308V33.582H244.248V10.308H242.248ZM242.248 33.582C242.248 36.6383 241.579 39.1623 240.295 41.2035L241.988 42.2685C243.512 39.8457 244.248 36.9337 244.248 33.582H242.248ZM240.293 41.2073C239.026 43.2409 237.317 44.7674 235.149 45.8014L236.01 47.6066C238.522 46.4086 240.521 44.6231 241.991 42.2647L240.293 41.2073ZM235.144 45.804C232.99 46.8472 230.568 47.378 227.858 47.378V49.378C230.836 49.378 233.561 48.7928 236.016 47.604L235.144 45.804ZM227.858 47.378C225.186 47.378 222.781 46.848 220.626 45.804L219.754 47.604C222.207 48.792 224.914 49.378 227.858 49.378V47.378ZM220.631 45.8067C218.537 44.7764 216.88 43.2531 215.645 41.2174L213.935 42.2546C215.364 44.6109 217.306 46.3996 219.748 47.6013L220.631 45.8067ZM215.649 41.2235C214.428 39.1788 213.792 36.6474 213.792 33.582H211.792C211.792 36.9246 212.487 39.8292 213.931 42.2485L215.649 41.2235ZM213.792 33.582V10.308H211.792V33.582H213.792ZM212.792 11.308H220.352V9.308H212.792V11.308Z" fill="#FF7C03"/>
<path d="M118.369 48L117.499 48.4927L117.786 49H118.369V48ZM110.053 33.312L110.923 32.8193L110.636 32.312H110.053V33.312ZM106.489 33.312V32.312H105.489V33.312H106.489ZM106.489 48V49H107.489V48H106.489ZM98.9291 48H97.9291V49H98.9291V48ZM98.9291 10.308V9.308H97.9291V10.308H98.9291ZM120.529 11.874L120.076 12.7654L120.088 12.7716L120.529 11.874ZM125.119 16.032L124.251 16.5281L124.257 16.5387L124.263 16.5491L125.119 16.032ZM124.525 28.614L125.334 29.2022L125.339 29.1952L124.525 28.614ZM118.099 32.718L117.842 31.7516L116.568 32.0904L117.238 33.2262L118.099 32.718ZM127.117 48V49H128.868L127.978 47.4918L127.117 48ZM106.489 27.642H105.489V28.642H106.489V27.642ZM117.397 26.184L118.091 26.9038L118.098 26.8975L118.104 26.8911L117.397 26.184ZM117.397 18.03L116.703 18.7498L116.71 18.7564L116.717 18.7628L117.397 18.03ZM106.489 16.572V15.572H105.489V16.572H106.489ZM119.239 47.5073L110.923 32.8193L109.183 33.8047L117.499 48.4927L119.239 47.5073ZM110.053 32.312H106.489V34.312H110.053V32.312ZM105.489 33.312V48H107.489V33.312H105.489ZM106.489 47H98.9291V49H106.489V47ZM99.9291 48V10.308H97.9291V48H99.9291ZM98.9291 11.308H113.077V9.308H98.9291V11.308ZM113.077 11.308C115.876 11.308 118.197 11.8092 120.076 12.7653L120.983 10.9827C118.758 9.85076 116.11 9.308 113.077 9.308V11.308ZM120.088 12.7716C121.984 13.7029 123.354 14.9589 124.251 16.5281L125.987 15.5359C124.868 13.5771 123.178 12.0611 120.97 10.9764L120.088 12.7716ZM124.263 16.5491C125.206 18.1101 125.685 19.873 125.685 21.864H127.685C127.685 19.535 127.12 17.4099 125.975 15.5149L124.263 16.5491ZM125.685 21.864C125.685 24.1402 125.03 26.1868 123.711 28.0328L125.339 29.1952C126.9 27.0092 127.685 24.5558 127.685 21.864H125.685ZM123.716 28.0258C122.437 29.7846 120.511 31.0422 117.842 31.7516L118.356 33.6844C121.375 32.8818 123.733 31.4034 125.334 29.2022L123.716 28.0258ZM117.238 33.2262L126.256 48.5082L127.978 47.4918L118.96 32.2098L117.238 33.2262ZM127.117 47H118.369V49H127.117V47ZM106.489 28.642H112.807V26.642H106.489V28.642ZM112.807 28.642C114.999 28.642 116.826 28.1242 118.091 26.9038L116.703 25.4642C115.953 26.1878 114.72 26.642 112.807 26.642V28.642ZM118.104 26.8911C119.342 25.6531 119.909 23.9885 119.909 22.026H117.909C117.909 23.5915 117.468 24.6989 116.69 25.4769L118.104 26.8911ZM119.909 22.026C119.909 20.096 119.339 18.4686 118.078 17.2972L116.717 18.7628C117.471 19.4634 117.909 20.5 117.909 22.026H119.909ZM118.091 17.3102C116.826 16.0898 114.999 15.572 112.807 15.572V17.572C114.72 17.572 115.953 18.0262 116.703 18.7498L118.091 17.3102ZM112.807 15.572H106.489V17.572H112.807V15.572ZM105.489 16.572V27.642H107.489V16.572H105.489Z" fill="#FF7C03"/>
</svg>
