<svg width="115" height="94" viewBox="0 0 115 94" fill="none" xmlns="http://www.w3.org/2000/svg">
<g clip-path="url(#clip0_1139_119)">
<path opacity="0.75" d="M87.3428 29.139H77.325V20.5332H69.3108V29.139H59.293V36.0237H69.3108V44.6295H77.325V36.0237H87.3428V29.139Z" fill="#99DB21"/>
<path d="M27.2363 20.5332V44.6295H55.2862V20.5332H27.2363ZM53.2826 42.9083H29.2399V22.2544H53.2826V42.9083Z" fill="#99DB21"/>
<path opacity="0.5" d="M49.2756 25.6973H33.2471V29.1396H49.2756V25.6973Z" fill="#99DB21"/>
<path opacity="0.5" d="M49.2756 36.0234H33.2471V39.4658H49.2756V36.0234Z" fill="#99DB21"/>
<path opacity="0.5" d="M49.2756 30.8594H33.2471V34.3017H49.2756V30.8594Z" fill="#99DB21"/>
<path d="M27.2363 48.0723V72.1685H55.2862V48.0723H27.2363ZM43.2648 65.2839H31.2435V54.9569H43.2648V65.2839ZM51.2791 65.2839L45.2684 61.8416V58.3992L51.2791 54.9569V65.2839Z" fill="#99DB21"/>
<path d="M83.0926 47.8277L64.6738 63.6504L68.924 67.3015L87.3427 51.4788L83.0926 47.8277Z" fill="#99DB21"/>
<path d="M63.258 64.8665L59.0078 68.5176L63.258 72.1687L67.5081 68.5176L63.258 64.8665Z" fill="#99DB21"/>
<path opacity="0.75" d="M75.3218 49.793H61.2969V61.8411H63.3004V51.5141H75.3218V49.793Z" fill="#99DB21"/>
<path opacity="0.75" d="M71.3145 70.4466H85.3394V58.3984H83.3358V68.7254H71.3145V70.4466Z" fill="#99DB21"/>
</g>
<path fill-rule="evenodd" clip-rule="evenodd" d="M0.000434875 46.754C0.000434875 72.3749 25.6497 93.1447 57.2898 93.1447C88.9298 93.1447 114.579 72.3749 114.579 46.754C114.579 23.3832 93.2371 4.04876 65.4738 0.833065C91.1235 3.98551 110.822 22.6217 110.822 45.1404C110.822 69.8701 87.0653 89.9175 57.7594 89.9175C28.4534 89.9175 4.69628 69.8701 4.69628 45.1404C4.69628 20.4748 28.3304 0.467287 57.5315 0.363685C57.4509 0.363416 57.3704 0.363281 57.2898 0.363281C25.6497 0.363281 0.000434875 21.1331 0.000434875 46.754Z" fill="url(#paint0_radial_1139_119)"/>
<defs>
<radialGradient id="paint0_radial_1139_119" cx="0" cy="0" r="1" gradientUnits="userSpaceOnUse" gradientTransform="translate(57 115.5) rotate(-90) scale(152 123.084)">
<stop stop-color="#FF7C03"/>
<stop offset="0.965297" stop-color="#99DB21"/>
</radialGradient>
<clipPath id="clip0_1139_119">
<rect width="60.1068" height="51.6349" fill="white" transform="translate(27.2363 20.5332)"/>
</clipPath>
</defs>
</svg>
