<svg width="278" height="58" viewBox="0 0 278 58" fill="none" xmlns="http://www.w3.org/2000/svg">
<path d="M2.21189 33.042C2.21189 29.946 2.84189 27.246 4.10189 24.942C5.36189 22.602 7.10789 20.802 9.33989 19.542C11.5719 18.246 14.1279 17.598 17.0079 17.598C20.7159 17.598 23.7759 18.534 26.1879 20.406C28.6359 22.242 30.2739 24.834 31.1019 28.182H22.9479C22.5159 26.886 21.7779 25.878 20.7339 25.158C19.7259 24.402 18.4659 24.024 16.9539 24.024C14.7939 24.024 13.0839 24.816 11.8239 26.4C10.5639 27.948 9.93389 30.162 9.93389 33.042C9.93389 35.886 10.5639 38.1 11.8239 39.684C13.0839 41.232 14.7939 42.006 16.9539 42.006C20.0139 42.006 22.0119 40.638 22.9479 37.902H31.1019C30.2739 41.142 28.6359 43.716 26.1879 45.624C23.7399 47.532 20.6799 48.486 17.0079 48.486C14.1279 48.486 11.5719 47.856 9.33989 46.596C7.10789 45.3 5.36189 43.5 4.10189 41.196C2.84189 38.856 2.21189 36.138 2.21189 33.042ZM52.6243 48.486C49.7443 48.486 47.1523 47.856 44.8483 46.596C42.5443 45.3 40.7263 43.482 39.3943 41.142C38.0983 38.802 37.4503 36.102 37.4503 33.042C37.4503 29.982 38.1163 27.282 39.4483 24.942C40.8163 22.602 42.6703 20.802 45.0103 19.542C47.3503 18.246 49.9603 17.598 52.8403 17.598C55.7203 17.598 58.3303 18.246 60.6703 19.542C63.0103 20.802 64.8463 22.602 66.1783 24.942C67.5463 27.282 68.2303 29.982 68.2303 33.042C68.2303 36.102 67.5283 38.802 66.1243 41.142C64.7563 43.482 62.8843 45.3 60.5083 46.596C58.1683 47.856 55.5403 48.486 52.6243 48.486ZM52.6243 41.898C53.9923 41.898 55.2703 41.574 56.4583 40.926C57.6823 40.242 58.6543 39.234 59.3743 37.902C60.0943 36.57 60.4543 34.95 60.4543 33.042C60.4543 30.198 59.6983 28.02 58.1863 26.508C56.7103 24.96 54.8923 24.186 52.7323 24.186C50.5723 24.186 48.7543 24.96 47.2783 26.508C45.8383 28.02 45.1183 30.198 45.1183 33.042C45.1183 35.886 45.8203 38.082 47.2243 39.63C48.6643 41.142 50.4643 41.898 52.6243 41.898ZM84.0358 22.728C85.0078 21.144 86.2678 19.902 87.8158 19.002C89.3998 18.102 91.1998 17.652 93.2158 17.652V25.59H91.2178C88.8418 25.59 87.0418 26.148 85.8178 27.264C84.6298 28.38 84.0358 30.324 84.0358 33.096V48H76.4758V18.084H84.0358V22.728ZM128.818 32.394C128.818 33.474 128.746 34.446 128.602 35.31H106.732C106.912 37.47 107.668 39.162 109 40.386C110.332 41.61 111.97 42.222 113.914 42.222C116.722 42.222 118.72 41.016 119.908 38.604H128.062C127.198 41.484 125.542 43.86 123.094 45.732C120.646 47.568 117.64 48.486 114.076 48.486C111.196 48.486 108.604 47.856 106.3 46.596C104.032 45.3 102.25 43.482 100.954 41.142C99.6938 38.802 99.0638 36.102 99.0638 33.042C99.0638 29.946 99.6938 27.228 100.954 24.888C102.214 22.548 103.978 20.748 106.246 19.488C108.514 18.228 111.124 17.598 114.076 17.598C116.92 17.598 119.458 18.21 121.69 19.434C123.958 20.658 125.704 22.404 126.928 24.672C128.188 26.904 128.818 29.478 128.818 32.394ZM120.988 30.234C120.952 28.29 120.25 26.742 118.882 25.59C117.514 24.402 115.84 23.808 113.86 23.808C111.988 23.808 110.404 24.384 109.108 25.536C107.848 26.652 107.074 28.218 106.786 30.234H120.988ZM144.596 22.458C145.568 21.018 146.9 19.848 148.592 18.948C150.32 18.048 152.282 17.598 154.478 17.598C157.034 17.598 159.338 18.228 161.39 19.488C163.478 20.748 165.116 22.548 166.304 24.888C167.528 27.192 168.14 29.874 168.14 32.934C168.14 35.994 167.528 38.712 166.304 41.088C165.116 43.428 163.478 45.246 161.39 46.542C159.338 47.838 157.034 48.486 154.478 48.486C152.246 48.486 150.284 48.054 148.592 47.19C146.936 46.29 145.604 45.138 144.596 43.734V48H137.036V8.04H144.596V22.458ZM160.418 32.934C160.418 31.134 160.04 29.586 159.284 28.29C158.564 26.958 157.592 25.95 156.368 25.266C155.18 24.582 153.884 24.24 152.48 24.24C151.112 24.24 149.816 24.6 148.592 25.32C147.404 26.004 146.432 27.012 145.676 28.344C144.956 29.676 144.596 31.242 144.596 33.042C144.596 34.842 144.956 36.408 145.676 37.74C146.432 39.072 147.404 40.098 148.592 40.818C149.816 41.502 151.112 41.844 152.48 41.844C153.884 41.844 155.18 41.484 156.368 40.764C157.592 40.044 158.564 39.018 159.284 37.686C160.04 36.354 160.418 34.77 160.418 32.934ZM204.576 18.084V48H196.962V44.22C195.99 45.516 194.712 46.542 193.128 47.298C191.58 48.018 189.888 48.378 188.052 48.378C185.712 48.378 183.642 47.892 181.842 46.92C180.042 45.912 178.62 44.454 177.576 42.546C176.568 40.602 176.064 38.298 176.064 35.634V18.084H183.624V34.554C183.624 36.93 184.218 38.766 185.406 40.062C186.594 41.322 188.214 41.952 190.266 41.952C192.354 41.952 193.992 41.322 195.18 40.062C196.368 38.766 196.962 36.93 196.962 34.554V18.084H204.576ZM226.183 48.486C223.735 48.486 221.539 48.054 219.595 47.19C217.651 46.29 216.103 45.084 214.951 43.572C213.835 42.06 213.223 40.386 213.115 38.55H220.729C220.873 39.702 221.431 40.656 222.403 41.412C223.411 42.168 224.653 42.546 226.129 42.546C227.569 42.546 228.685 42.258 229.477 41.682C230.305 41.106 230.719 40.368 230.719 39.468C230.719 38.496 230.215 37.776 229.207 37.308C228.235 36.804 226.669 36.264 224.509 35.688C222.277 35.148 220.441 34.59 219.001 34.014C217.597 33.438 216.373 32.556 215.329 31.368C214.321 30.18 213.817 28.578 213.817 26.562C213.817 24.906 214.285 23.394 215.221 22.026C216.193 20.658 217.561 19.578 219.325 18.786C221.125 17.994 223.231 17.598 225.643 17.598C229.207 17.598 232.051 18.498 234.175 20.298C236.299 22.062 237.469 24.456 237.685 27.48H230.449C230.341 26.292 229.837 25.356 228.937 24.672C228.073 23.952 226.903 23.592 225.427 23.592C224.059 23.592 222.997 23.844 222.241 24.348C221.521 24.852 221.161 25.554 221.161 26.454C221.161 27.462 221.665 28.236 222.673 28.776C223.681 29.28 225.247 29.802 227.371 30.342C229.531 30.882 231.313 31.44 232.717 32.016C234.121 32.592 235.327 33.492 236.335 34.716C237.379 35.904 237.919 37.488 237.955 39.468C237.955 41.196 237.469 42.744 236.497 44.112C235.561 45.48 234.193 46.56 232.393 47.352C230.629 48.108 228.559 48.486 226.183 48.486ZM260.145 48.486C257.265 48.486 254.673 47.856 252.369 46.596C250.065 45.3 248.247 43.482 246.915 41.142C245.619 38.802 244.971 36.102 244.971 33.042C244.971 29.982 245.637 27.282 246.969 24.942C248.337 22.602 250.191 20.802 252.531 19.542C254.871 18.246 257.481 17.598 260.361 17.598C263.241 17.598 265.851 18.246 268.191 19.542C270.531 20.802 272.367 22.602 273.699 24.942C275.067 27.282 275.751 29.982 275.751 33.042C275.751 36.102 275.049 38.802 273.645 41.142C272.277 43.482 270.405 45.3 268.029 46.596C265.689 47.856 263.061 48.486 260.145 48.486ZM260.145 41.898C261.513 41.898 262.791 41.574 263.979 40.926C265.203 40.242 266.175 39.234 266.895 37.902C267.615 36.57 267.975 34.95 267.975 33.042C267.975 30.198 267.219 28.02 265.707 26.508C264.231 24.96 262.413 24.186 260.253 24.186C258.093 24.186 256.275 24.96 254.799 26.508C253.359 28.02 252.639 30.198 252.639 33.042C252.639 35.886 253.341 38.082 254.745 39.63C256.185 41.142 257.985 41.898 260.145 41.898Z" fill="black"/>
</svg>
